<?xml version="1.0" encoding="UTF-8"?>
<svg version="1.1" xmlns="http://www.w3.org/2000/svg" width="150" height="150">
<path d="M0 0 C1.04608429 -0.0087616 2.09216858 -0.01752319 3.16995239 -0.02655029 C6.62544312 -0.04854447 10.07965266 -0.03399033 13.53515625 -0.01708984 C15.93742112 -0.02045794 18.33968433 -0.0253105 20.74194336 -0.03158569 C25.77571849 -0.0389571 30.8090499 -0.02824215 35.84277344 -0.00488281 C42.29611021 0.02360425 48.74840731 0.00720184 55.20170593 -0.02274513 C60.16198566 -0.04081033 65.12201877 -0.03506345 70.08230591 -0.02210617 C72.46176272 -0.01877005 74.84124191 -0.0228664 77.22067261 -0.03450394 C80.54615611 -0.04719899 83.86995456 -0.02785191 87.1953125 0 C88.17936066 -0.01012115 89.16340881 -0.02024231 90.17727661 -0.03067017 C94.82612521 0.04148571 96.92056082 0.12833768 100.70835876 3.02967834 C102.79909938 5.92603721 103.22950338 7.27840485 103.2265625 10.80712891 C103.22849609 11.76554687 103.23042969 12.72396484 103.23242188 13.71142578 C103.20857422 14.70078125 103.18472656 15.69013672 103.16015625 16.70947266 C103.17111328 17.70269531 103.18207031 18.69591797 103.19335938 19.71923828 C103.12141107 26.84212095 103.12141107 26.84212095 101.21983337 29.76426697 C97.10622598 32.71780964 93.05246566 32.20426027 88.109375 32.16455078 C87.0423233 32.17156006 85.97527161 32.17856934 84.87588501 32.18579102 C81.34537811 32.2034098 77.81567144 32.19173383 74.28515625 32.17822266 C71.83422695 32.18091644 69.38329869 32.1847979 66.93237305 32.18981934 C61.79433015 32.19571968 56.65656529 32.18713378 51.51855469 32.16845703 C44.9273414 32.14566767 38.33677959 32.15878781 31.74559021 32.18274689 C26.68415403 32.1971901 21.62287269 32.19260556 16.56143188 32.18223572 C14.13090946 32.17956437 11.70037304 32.18285246 9.26986694 32.19215393 C5.87484409 32.20229473 2.48088125 32.18685158 -0.9140625 32.16455078 C-2.42593643 32.17669617 -2.42593643 32.17669617 -3.96835327 32.18908691 C-10.76265779 32.10626291 -10.76265779 32.10626291 -14.02452087 29.76426697 C-16.63663693 25.75023979 -16.0160957 21.35531112 -15.96484375 16.70947266 C-15.98869141 15.72011719 -16.01253906 14.73076172 -16.03710938 13.71142578 C-16.03517578 12.75300781 -16.03324219 11.79458984 -16.03125 10.80712891 C-16.0319751 9.93709229 -16.0327002 9.06705566 -16.03344727 8.1706543 C-13.93701953 -0.21262365 -7.17644171 -0.0738113 0 0 Z M-8.40234375 7.64697266 C-9.81928132 10.48084781 -9.57224505 12.92726639 -9.58984375 16.08447266 C-9.60402344 17.23818359 -9.61820313 18.39189453 -9.6328125 19.58056641 C-9.64159463 22.81977434 -9.64159463 22.81977434 -7.40234375 25.64697266 C-5.51096514 26.10018608 -5.51096514 26.10018608 -3.30297852 26.02792358 C-2.01582443 26.04061279 -2.01582443 26.04061279 -0.70266724 26.05355835 C0.7124968 26.04444931 0.7124968 26.04444931 2.15625 26.03515625 C3.14819366 26.04041321 4.14013733 26.04567017 5.16213989 26.05108643 C8.45330376 26.06433074 11.74398714 26.05553254 15.03515625 26.04541016 C17.31437269 26.04742961 19.59358851 26.05033997 21.87280273 26.05410767 C26.65452208 26.05853704 31.43607356 26.05208017 36.21777344 26.03808594 C42.35850892 26.02099386 48.4988511 26.03083175 54.63957214 26.04880333 C59.34748315 26.05962456 64.05530034 26.05620245 68.76321411 26.04841995 C71.02792405 26.04641335 73.29264241 26.04889325 75.55734253 26.05585861 C78.71814662 26.06344571 81.8783066 26.05190716 85.0390625 26.03515625 C85.98250519 26.04122894 86.92594788 26.04730164 87.89797974 26.05355835 C88.75608246 26.04509888 89.61418518 26.0366394 90.49829102 26.02792358 C91.24603287 26.02679251 91.99377472 26.02566143 92.76417542 26.02449608 C95.01317269 25.78537336 95.01317269 25.78537336 96.59765625 22.64697266 C96.8780976 19.51194951 96.8780976 19.51194951 96.78515625 16.08447266 C96.77871094 14.92818359 96.77226563 13.77189453 96.765625 12.58056641 C96.79536801 9.71293464 96.79536801 9.71293464 95.59765625 7.64697266 C61.27765625 7.64697266 26.95765625 7.64697266 -8.40234375 7.64697266 Z " fill="#FAC161" transform="translate(26.40234375,19.35302734375)"/>
<path d="M0 0 C1.04608429 -0.0087616 2.09216858 -0.01752319 3.16995239 -0.02655029 C6.62544312 -0.04854447 10.07965266 -0.03399033 13.53515625 -0.01708984 C15.93742112 -0.02045794 18.33968433 -0.0253105 20.74194336 -0.03158569 C25.77571849 -0.0389571 30.8090499 -0.02824215 35.84277344 -0.00488281 C42.29611021 0.02360425 48.74840731 0.00720184 55.20170593 -0.02274513 C60.16198566 -0.04081033 65.12201877 -0.03506345 70.08230591 -0.02210617 C72.46176272 -0.01877005 74.84124191 -0.0228664 77.22067261 -0.03450394 C80.54615611 -0.04719899 83.86995456 -0.02785191 87.1953125 0 C88.17936066 -0.01012115 89.16340881 -0.02024231 90.17727661 -0.03067017 C94.82892091 0.0415291 96.92125327 0.12876321 100.71133423 3.03244019 C102.79252318 5.91706754 103.20313593 7.18671122 103.12109375 10.69384766 C103.10949219 11.62068359 103.09789062 12.54751953 103.0859375 13.50244141 C103.04855469 14.45763672 103.01117188 15.41283203 102.97265625 16.39697266 C102.95847656 17.36763672 102.94429688 18.33830078 102.9296875 19.33837891 C102.78018973 26.46443917 102.78018973 26.46443917 101.59765625 27.64697266 C99.94765625 27.64697266 98.29765625 27.64697266 96.59765625 27.64697266 C96.26765625 21.04697266 95.93765625 14.44697266 95.59765625 7.64697266 C61.27765625 7.64697266 26.95765625 7.64697266 -8.40234375 7.64697266 C-9.17163927 16.44661268 -9.17163927 16.44661268 -7.40234375 24.64697266 C11.07765625 24.97697266 29.55765625 25.30697266 48.59765625 25.64697266 C48.59765625 27.29697266 48.59765625 28.94697266 48.59765625 30.64697266 C46.86207927 32.38254964 44.49555303 31.80146508 42.1315918 31.82397461 C40.3792347 31.84322746 40.3792347 31.84322746 38.59147644 31.86286926 C36.68221123 31.87394966 36.68221123 31.87394966 34.734375 31.88525391 C33.43570999 31.89332565 32.13704498 31.9013974 30.79902649 31.90971375 C28.04416024 31.92475515 25.28931992 31.93458581 22.53442383 31.94213867 C19.00676541 31.95319621 15.47973903 31.98758194 11.95230389 32.02731037 C8.58801922 32.05975643 5.22380409 32.06425422 1.859375 32.07275391 C0.59260422 32.09026199 -0.67416656 32.10777008 -1.97932434 32.12580872 C-3.15701889 32.12288315 -4.33471344 32.11995758 -5.5480957 32.11694336 C-6.58432571 32.1228096 -7.62055573 32.12867584 -8.68818665 32.13471985 C-12.10809861 31.52014509 -13.28111794 30.3442476 -15.40234375 27.64697266 C-16.2063709 24.03823389 -16.00553387 20.39791258 -15.96484375 16.70947266 C-15.98869141 15.72011719 -16.01253906 14.73076172 -16.03710938 13.71142578 C-16.03517578 12.75300781 -16.03324219 11.79458984 -16.03125 10.80712891 C-16.0319751 9.93709229 -16.0327002 9.06705566 -16.03344727 8.1706543 C-13.93701953 -0.21262365 -7.17644171 -0.0738113 0 0 Z " fill="#FAC161" transform="translate(26.40234375,54.35302734375)"/>
<path d="M0 0 C2.90725081 2.90725081 4.45875241 5.5348198 6.25 9.25 C6.25 10.57 6.25 11.89 6.25 13.25 C7.13751953 13.28867188 7.13751953 13.28867188 8.04296875 13.328125 C13.27997449 13.70402753 16.54320621 14.21613617 20.25 18.25 C23.97034802 23.50980237 24.04467792 29.03706353 23.25 35.25 C21.76722875 40.05135454 18.90399823 43.03483365 14.48995972 45.43164062 C9.77698789 47.15350404 4.77387014 46.8164042 -0.18359375 46.78125 C-1.3754982 46.7850769 -2.56740265 46.78890381 -3.79542542 46.79284668 C-6.30934496 46.79556168 -8.82329296 46.78822952 -11.3371582 46.77148438 C-15.17138109 46.75008994 -19.00372609 46.77129258 -22.83789062 46.796875 C-25.28646245 46.79423128 -27.7350331 46.7891054 -30.18359375 46.78125 C-31.89330605 46.79339539 -31.89330605 46.79339539 -33.63755798 46.80578613 C-41.35213943 46.7155491 -46.94643126 45.70585444 -52.84375 40.34765625 C-57.30085535 33.89723434 -58.02650881 27.9577746 -56.75 20.25 C-54.77603304 14.63455974 -51.08649885 11.05843141 -45.9921875 8.1171875 C-43.44928618 7.13369605 -41.4044715 7.01182445 -38.6875 6.9375 C-35.53512361 6.78830356 -34.21094391 6.66569788 -31.83984375 4.52734375 C-30.69818514 3.09441917 -29.57043554 1.65029983 -28.45703125 0.1953125 C-21.0185793 -8.28145882 -8.31424536 -5.29088341 0 0 Z M-25.75 5.25 C-26.5362012 6.49039175 -27.30655385 7.74094105 -28.0625 9 C-29.28125 10.84765625 -29.28125 10.84765625 -30.75 12.25 C-33.04728645 12.59901083 -35.09252386 12.43524821 -37.40625 12.26171875 C-41.50246526 12.24123767 -44.58566181 13.71282793 -47.75 16.25 C-50.76572182 19.99479743 -52.10575117 23.62761157 -51.6875 28.4375 C-50.28783838 34.21856409 -50.28783838 34.21856409 -46.20890808 38.32728577 C-40.28929674 41.59130019 -35.0938636 41.81990747 -28.42578125 41.74609375 C-27.361353 41.74754898 -26.29692474 41.74900421 -25.20024109 41.75050354 C-22.96216072 41.74885103 -20.72406821 41.73736294 -18.48608398 41.71655273 C-15.06249837 41.68749999 -11.64045385 41.69597787 -8.21679688 41.70898438 C-6.03645082 41.70274918 -3.85610964 41.69435996 -1.67578125 41.68359375 C-0.65486893 41.68652939 0.3660434 41.68946503 1.41789246 41.69248962 C6.51040952 41.62483862 10.11536768 41.57038589 14.25 38.25 C15.11625 37.6621875 15.11625 37.6621875 16 37.0625 C18.06100117 34.07404831 18.37480465 30.79306527 18.25 27.25 C16.79915765 23.98560471 14.98033359 21.53875344 12.25 19.25 C9.75556226 18.46201945 9.75556226 18.46201945 7.0625 18.0625 C5.71091797 17.82466797 5.71091797 17.82466797 4.33203125 17.58203125 C3.64496094 17.47246094 2.95789063 17.36289063 2.25 17.25 C2.04697266 16.37988281 2.04697266 16.37988281 1.83984375 15.4921875 C0.10981985 9.21437621 -2.35974011 5.88680186 -7.75 2.25 C-13.84505786 -0.79752893 -20.91254523 0.86254102 -25.75 5.25 Z " fill="#FF9900" transform="translate(114.75,82.75)"/>
<path d="M0 0 C1.21771088 0.0070546 1.21771088 0.0070546 2.46002197 0.01425171 C5.04193341 0.0355341 7.62176518 0.09214317 10.203125 0.1484375 C11.95440781 0.16494987 13.70571246 0.17929659 15.45703125 0.19140625 C28.25731955 0.32763205 28.25731955 0.32763205 29.453125 1.5234375 C29.49376332 3.18960865 29.495846 4.85731845 29.453125 6.5234375 C26.38717906 8.05641047 23.18200647 7.64475205 19.8203125 7.62109375 C19.06847687 7.6196788 18.31664124 7.61826385 17.54202271 7.61680603 C15.1373499 7.61120215 12.73276973 7.59864907 10.328125 7.5859375 C8.69922009 7.580923 7.07031373 7.57636 5.44140625 7.57226562 C1.44527673 7.56123147 -2.55078342 7.54396429 -6.546875 7.5234375 C-6.57379185 9.98184355 -6.59367302 12.43995632 -6.609375 14.8984375 C-6.61775391 15.59710938 -6.62613281 16.29578125 -6.63476562 17.015625 C-6.7304192 20.89639126 -6.7304192 20.89639126 -5.546875 24.5234375 C6.003125 24.8534375 17.553125 25.1834375 29.453125 25.5234375 C29.453125 27.5034375 29.453125 29.4834375 29.453125 31.5234375 C23.9722215 31.62237078 18.49183855 31.69493615 13.01025391 31.74316406 C11.14590399 31.76327011 9.28161706 31.7905593 7.41748047 31.82519531 C4.73649552 31.87375871 2.05634477 31.89641588 -0.625 31.9140625 C-1.45743225 31.93470764 -2.2898645 31.95535278 -3.14752197 31.97662354 C-6.88784876 31.97807137 -8.91565741 31.95143859 -12.0690918 29.81323242 C-14.73701104 25.67934599 -14.16214188 21.36910036 -14.109375 16.5859375 C-14.13322266 15.59658203 -14.15707031 14.60722656 -14.18164062 13.58789062 C-14.17970703 12.62947266 -14.17777344 11.67105469 -14.17578125 10.68359375 C-14.17650635 9.81355713 -14.17723145 8.94352051 -14.17797852 8.04711914 C-12.31579711 0.60055467 -6.73386286 -0.19561137 0 0 Z " fill="#FAC161" transform="translate(24.546875,90.4765625)"/>
<path d="M0 0 C1.03447266 -0.00315216 2.06894531 -0.00630432 3.13476562 -0.009552 C4.25560547 -0.00752777 5.37644531 -0.00550354 6.53125 -0.00341797 C7.67787109 -0.00437469 8.82449219 -0.00533142 10.00585938 -0.00631714 C12.43359431 -0.00699858 14.86133105 -0.00514682 17.2890625 -0.00097656 C21.01566643 0.00437216 24.74214984 -0.00092282 28.46875 -0.00732422 C30.82291693 -0.00666343 33.17708379 -0.00538226 35.53125 -0.00341797 C36.65208984 -0.0054422 37.77292969 -0.00746643 38.92773438 -0.009552 C40.47944336 -0.00482376 40.47944336 -0.00482376 42.0625 0 C42.97580078 0.00079559 43.88910156 0.00159119 44.83007812 0.00241089 C47.03125 0.12939453 47.03125 0.12939453 49.03125 1.12939453 C49.073971 2.79551358 49.07188832 4.46322338 49.03125 6.12939453 C47.35112658 7.80951795 45.28037808 7.25686792 42.9765625 7.25878906 C41.35983643 7.2635173 41.35983643 7.2635173 39.71044922 7.26834106 C38.53756348 7.26631683 37.36467773 7.2642926 36.15625 7.26220703 C34.9614502 7.26316376 33.76665039 7.26412048 32.53564453 7.2651062 C30.0035802 7.26578824 27.47151412 7.26393231 24.93945312 7.25976562 C21.0481374 7.25441774 17.15693711 7.25970986 13.265625 7.26611328 C10.81249974 7.2654525 8.35937456 7.26417135 5.90625 7.26220703 C4.73336426 7.26423126 3.56047852 7.26625549 2.35205078 7.26834106 C1.2742334 7.2651889 0.19641602 7.26203674 -0.9140625 7.25878906 C-1.86812988 7.25799347 -2.82219727 7.25719788 -3.80517578 7.25637817 C-5.96875 7.12939453 -5.96875 7.12939453 -6.96875 6.12939453 C-7.00938832 4.46322338 -7.011471 2.79551358 -6.96875 1.12939453 C-4.47400029 -0.11798032 -2.79097396 0.00243127 0 0 Z " fill="#FEC361" transform="translate(60.96875,66.87060546875)"/>
<path d="M0 0 C1.03447266 -0.00315216 2.06894531 -0.00630432 3.13476562 -0.009552 C4.25560547 -0.00752777 5.37644531 -0.00550354 6.53125 -0.00341797 C7.67787109 -0.00437469 8.82449219 -0.00533142 10.00585938 -0.00631714 C12.43359431 -0.00699858 14.86133105 -0.00514682 17.2890625 -0.00097656 C21.01566643 0.00437216 24.74214984 -0.00092282 28.46875 -0.00732422 C30.82291693 -0.00666343 33.17708379 -0.00538226 35.53125 -0.00341797 C36.65208984 -0.0054422 37.77292969 -0.00746643 38.92773438 -0.009552 C40.47944336 -0.00482376 40.47944336 -0.00482376 42.0625 0 C42.97580078 0.00079559 43.88910156 0.00159119 44.83007812 0.00241089 C47.03125 0.12939453 47.03125 0.12939453 49.03125 1.12939453 C49.073971 2.79551358 49.07188832 4.46322338 49.03125 6.12939453 C47.35112658 7.80951795 45.28037808 7.25686792 42.9765625 7.25878906 C41.35983643 7.2635173 41.35983643 7.2635173 39.71044922 7.26834106 C38.53756348 7.26631683 37.36467773 7.2642926 36.15625 7.26220703 C34.9614502 7.26316376 33.76665039 7.26412048 32.53564453 7.2651062 C30.0035802 7.26578824 27.47151412 7.26393231 24.93945312 7.25976562 C21.0481374 7.25441774 17.15693711 7.25970986 13.265625 7.26611328 C10.81249974 7.2654525 8.35937456 7.26417135 5.90625 7.26220703 C4.73336426 7.26423126 3.56047852 7.26625549 2.35205078 7.26834106 C1.2742334 7.2651889 0.19641602 7.26203674 -0.9140625 7.25878906 C-1.86812988 7.25799347 -2.82219727 7.25719788 -3.80517578 7.25637817 C-5.96875 7.12939453 -5.96875 7.12939453 -6.96875 6.12939453 C-7.00938832 4.46322338 -7.011471 2.79551358 -6.96875 1.12939453 C-4.47400029 -0.11798032 -2.79097396 0.00243127 0 0 Z " fill="#FEC361" transform="translate(60.96875,31.87060546875)"/>
<path d="M0 0 C1.67542976 0.28604898 3.34385343 0.61781233 5 1 C5 2.65 5 4.3 5 6 C3.34385343 6.38218767 1.67542976 6.71395102 0 7 C-1 6 -1 6 -1.125 3.5 C-1 1 -1 1 0 0 Z " fill="#F9C061" transform="translate(31,103)"/>
<path d="M0 0 C0 1.65 0 3.3 0 5 C-1.65614657 5.38218767 -3.32457024 5.71395102 -5 6 C-6 5 -6 5 -6.0625 2.4375 C-6.041875 1.633125 -6.02125 0.82875 -6 0 C-3.50907189 -1.24546405 -2.58919267 -0.7767578 0 0 Z " fill="#F9C061" transform="translate(47,104)"/>
<path d="M0 0 C2.125 0.375 2.125 0.375 4 1 C4 2.65 4 4.3 4 6 C2.35 6.33 0.7 6.66 -1 7 C-1.625 4.625 -1.625 4.625 -2 2 C-1.34 1.34 -0.68 0.68 0 0 Z " fill="#F7BF62" transform="translate(43,32)"/>
<path d="M0 0 C1.98 0 3.96 0 6 0 C6 1.65 6 3.3 6 5 C4.34385343 5.38218767 2.67542976 5.71395102 1 6 C0 5 0 5 -0.0625 2.4375 C-0.041875 1.633125 -0.02125 0.82875 0 0 Z " fill="#F5BE61" transform="translate(30,68)"/>
<path d="M0 0 C1.98 0 3.96 0 6 0 C6 1.65 6 3.3 6 5 C4.34385343 5.38218767 2.67542976 5.71395102 1 6 C0 5 0 5 -0.0625 2.4375 C-0.041875 1.633125 -0.02125 0.82875 0 0 Z " fill="#F5BE61" transform="translate(30,33)"/>
<path d="M0 0 C1.2065625 0.0309375 1.2065625 0.0309375 2.4375 0.0625 C2.4375 1.7125 2.4375 3.3625 2.4375 5.0625 C0.7875 5.3925 -0.8625 5.7225 -2.5625 6.0625 C-2.94468767 4.40635343 -3.27645102 2.73792976 -3.5625 1.0625 C-2.5625 0.0625 -2.5625 0.0625 0 0 Z " fill="#F5BE61" transform="translate(44.5625,67.9375)"/>
</svg>
